<?xml version="1.0" encoding="UTF-8" standalone="no"?>
<svg
   height="750"
   width="750"
   viewBox="-343.4625 -532.5 1860.4219 2995.3125"
   version="1.1"
   id="svg31"
   sodipodi:docname="Microsoft_Excel-Logo.wine.svg"
   xml:space="preserve"
   inkscape:version="1.2.1 (9c6d41e410, 2022-07-14)"
   xmlns:inkscape="http://www.inkscape.org/namespaces/inkscape"
   xmlns:sodipodi="http://sodipodi.sourceforge.net/DTD/sodipodi-0.dtd"
   xmlns="http://www.w3.org/2000/svg"
   xmlns:svg="http://www.w3.org/2000/svg"><defs
     id="defs35" /><sodipodi:namedview
     id="namedview33"
     pagecolor="#505050"
     bordercolor="#eeeeee"
     borderopacity="1"
     inkscape:showpageshadow="0"
     inkscape:pageopacity="0"
     inkscape:pagecheckerboard="0"
     inkscape:deskcolor="#505050"
     showgrid="false"
     inkscape:zoom="0.417193"
     inkscape:cx="348.75945"
     inkscape:cy="443.43985"
     inkscape:window-width="1680"
     inkscape:window-height="987"
     inkscape:window-x="-8"
     inkscape:window-y="-8"
     inkscape:window-maximized="1"
     inkscape:current-layer="svg31" /><linearGradient
     gradientTransform="matrix(1,0,0,-1,0,2132)"
     y2="404.98199"
     x2="967.987"
     y1="1729.0179"
     x1="203.513"
     gradientUnits="userSpaceOnUse"
     id="a"><stop
       offset="0"
       stop-color="#18884f"
       id="stop16" /><stop
       offset=".5"
       stop-color="#117e43"
       id="stop18" /><stop
       offset="1"
       stop-color="#0b6631"
       id="stop20" /></linearGradient><g
     id="g9541"
     transform="translate(691.12585,432.65625)"><path
       d="M 186.375,479.25 -718.875,319.5 v 1180.393 c 0,53.907 43.7,97.607 97.607,97.607 H 940.768 c 53.907,0 97.607,-43.7 97.607,-97.607 V 1065 Z"
       fill="#185C37"
       id="path2"
       style="fill:#2c8ac7;fill-opacity:1" /><path
       d="m 186.375,-532.5 h -807.643 c -53.907,0 -97.607,43.7 -97.607,97.607 V 0 l 905.25,532.5 479.25,159.75 372.75,-159.75 V 0 Z"
       fill="#21A366"
       id="path4"
       style="fill:#5bb3ed;fill-opacity:1" /><path
       d="m -718.875,0 h 905.25 v 532.5 h -905.25 z"
       fill="#107C41"
       id="path6"
       style="fill:#45a4e2;fill-opacity:1" /><path
       d="m -70.982,-106.5 h -647.893 v 1331.25 h 647.893 c 53.834,-0.175 97.432,-43.773 97.607,-97.607 V -8.893 C 26.45,-62.727 -17.148,-106.325 -70.982,-106.5 Z"
       opacity="0.1"
       id="path8" /><path
       d="M -124.232,-53.25 H -718.875 V 1278 h 594.643 c 53.834,-0.175 97.432,-43.773 97.607,-97.607 V 44.357 C -26.8,-9.477 -70.398,-53.075 -124.232,-53.25 Z"
       opacity="0.2"
       id="path10" /><path
       d="M -124.232,-53.25 H -718.875 V 1171.5 h 594.643 c 53.834,-0.175 97.432,-43.773 97.607,-97.607 V 44.357 C -26.8,-9.477 -70.398,-53.075 -124.232,-53.25 Z"
       opacity="0.2"
       id="path12" /><path
       d="M -177.482,-53.25 H -718.875 V 1171.5 h 541.393 c 53.834,-0.175 97.432,-43.773 97.607,-97.607 V 44.357 c -0.175,-53.834 -43.773,-97.432 -97.607,-97.607 z"
       opacity="0.2"
       id="path14" /><path
       d="m -1153.768,-53.25 h 976.285 c 53.907,0 97.607,43.7 97.607,97.607 v 976.285 c 0,53.907 -43.7,97.607 -97.607,97.607 h -976.285 c -53.907,10e-4 -97.607,-43.699 -97.607,-97.606 V 44.357 c 0,-53.907 43.7,-97.607 97.607,-97.607 z"
       fill="url(#a)"
       id="path23"
       style="fill:#45a4e2;fill-opacity:1" /><path
       d="M 940.768,-532.5 H 186.375 V 0 h 852 v -434.893 c 0,-53.907 -43.7,-97.607 -97.607,-97.607 z"
       fill="#33C481"
       id="path27"
       style="fill:#75c1f3;fill-opacity:1" /><path
       d="m 186.375,532.5 h 852 V 1065 h -852 z"
       fill="#107C41"
       id="path29"
       style="fill:#45a4e2;fill-opacity:1" /><path
       id="path434"
       style="fill:#ffffff;fill-opacity:1;stroke-width:162.067;stroke-linecap:round;stroke-linejoin:round;stroke-dashoffset:6.4252;paint-order:stroke fill markers"
       d="M -665.58363,157.75892 A 374.74723,374.74723 0 0 0 -1040.3663,532.5417 374.74723,374.74723 0 0 0 -665.58363,907.2401 374.74723,374.74723 0 0 0 -290.88465,532.5417 374.74723,374.74723 0 0 0 -665.58363,157.75892 Z m 0,220.34711 A 154.44128,154.44128 0 0 1 -511.14802,532.5417 154.44128,154.44128 0 0 1 -665.58363,686.9775 154.44128,154.44128 0 0 1 -820.01924,532.5417 154.44128,154.44128 0 0 1 -665.58363,378.10603 Z" /></g></svg>
